<?xml version="1.0" encoding="UTF-8" standalone="no"?><!DOCTYPE svg PUBLIC "-//W3C//DTD SVG 1.1//EN" "http://www.w3.org/Graphics/SVG/1.1/DTD/svg11.dtd"><svg width="100%" height="100%" viewBox="0 0 934 964" version="1.1" xmlns="http://www.w3.org/2000/svg" xmlns:xlink="http://www.w3.org/1999/xlink" xml:space="preserve" xmlns:serif="http://www.serif.com/" style="fill-rule:evenodd;clip-rule:evenodd;stroke-linejoin:round;stroke-miterlimit:2;"><g><path d="M362.095,883.737c-14.922,-14.904 -35.149,-23.275 -56.239,-23.275l-44.21,0c-144.406,0 -261.645,-117.239 -261.645,-261.645l0,-337.171c0,-144.406 117.239,-261.645 261.645,-261.645l410.219,0c144.406,0 261.645,117.239 261.645,261.645l0,337.171c0,144.406 -117.239,261.645 -261.645,261.645l-44.21,0c-21.09,0 -41.317,8.371 -56.239,23.275l-62.367,62.29c-23.366,23.338 -61.22,23.338 -84.587,0l-62.367,-62.29Zm-45.966,-276.726c-79.571,4.755 -122.56,-25.707 -126.633,15.805c-1.089,11.097 4.717,56.972 46.831,91.922c16.366,13.582 56.759,42.497 79.299,47.313c42.681,9.12 59.487,-31.156 76.12,-57.404c10.946,-17.272 16.422,-9.969 43.03,-7.216c1.281,0.133 75.067,13.692 150.714,-22.945c31.162,-15.092 63.378,-46.445 64.901,-48.131c2.853,-3.158 32.107,-38.368 43.32,-77.643c17.305,-60.612 11.538,-61.729 18.843,-100.191c15.656,-82.425 64.136,-58.321 64.176,-75.438c0.013,-5.384 -3.354,-6.505 -8.138,-9.191c-19.247,-10.808 -24.91,-12.839 -31.154,-24.144c-5.259,-9.521 -11.362,-15.838 -17.365,-20.181c-21.31,-15.413 -88.939,-36.902 -134.13,53.993c-2.202,4.429 -13.827,27.81 -25.27,56.429c-1.775,4.438 -2.202,4.801 -7.062,4.666c-4.725,-0.132 -4.692,-1.123 -5.771,-5.758c-7.075,-30.382 -19.746,-80.906 -101.105,-149.095c-41.403,-34.701 -91.583,-63.681 -99.98,-68.53c-13.246,-7.65 -100.282,-59.347 -119.283,-46.405c-18.737,12.761 -16.564,69.569 14.727,107.08c33.057,39.629 51.211,35.939 59.199,41.373c0.648,0.441 6.394,4.35 2.042,9.584c-7.242,8.711 -81.867,-31.778 -91.134,-5.162c-1.816,5.215 -6.184,62.312 46.568,100.251c2.99,2.15 17.227,12.39 44.539,11.64c0.979,-0.027 8.692,-0.749 12.246,0.2c0.961,0.257 7.228,4.869 -0.34,10.992c-8.912,7.21 -71.793,4.091 -22.896,55.774c14.432,15.254 35.412,28.964 37.44,29.993c19.107,9.695 25.44,11.873 61.056,15.831c7.298,0.811 21.789,0.231 25.073,-0.176c4.302,-0.533 8.525,-1.974 12.86,-1.937c1.397,0.012 15.534,2.881 -3.182,17.17c-30.223,23.073 -59.692,46.554 -109.54,49.533Zm372.846,-262.872c6.414,0 11.621,5.207 11.621,11.621c0,6.414 -5.207,11.621 -11.621,11.621c-6.414,0 -11.621,-5.207 -11.621,-11.621c0,-6.414 5.207,-11.621 11.621,-11.621Zm51.034,-153.887c1.913,-0.62 19.397,-5.987 22.893,-10.369c3.028,-3.795 10.087,-15.366 -3.391,-26.211c-6.392,-5.144 -7.06,-3.715 -21.111,-8.116c-35.194,-11.022 -23.805,-46.648 -42.943,-52.652c-22.535,-7.07 -28.329,27.579 -30.21,32.318c-10.449,26.337 -54.156,18.63 -53.766,43.283c0.225,14.238 17.659,18.305 33.734,25.059c30.206,12.691 16.445,43.202 37.475,50.092c20.144,6.6 26.484,-17.849 26.673,-18.338c8.869,-22.888 7.911,-25.54 30.645,-35.066Z" style="fill:#2755aa;"/></g></svg>