<?xml version="1.0" encoding="UTF-8" standalone="no"?><!DOCTYPE svg PUBLIC "-//W3C//DTD SVG 1.1//EN" "http://www.w3.org/Graphics/SVG/1.1/DTD/svg11.dtd"><svg width="100%" height="100%" viewBox="0 0 4156 1069" version="1.1" xmlns="http://www.w3.org/2000/svg" xmlns:xlink="http://www.w3.org/1999/xlink" xml:space="preserve" xmlns:serif="http://www.serif.com/" style="fill-rule:evenodd;clip-rule:evenodd;stroke-linejoin:round;stroke-miterlimit:2;"><rect id="FullLogo" x="0" y="0" width="4155.995" height="1068.297" style="fill:none;"/><g><path d="M409.188,943.091c-14.922,-14.904 -35.149,-23.275 -56.239,-23.275c-20.969,0 -44.21,0 -44.21,0c-144.406,0 -261.645,-117.239 -261.645,-261.645l0,-337.171c0,-144.406 117.239,-261.645 261.645,-261.645l410.219,0c144.406,0 261.645,117.239 261.645,261.645l0,337.171c0,144.406 -117.239,261.645 -261.645,261.645l-44.21,0c-21.09,0 -41.317,8.371 -56.239,23.275c-25.368,25.337 -62.367,62.29 -62.367,62.29c-23.366,23.338 -61.22,23.338 -84.587,0c0,-0 -36.998,-36.953 -62.367,-62.29Z" style="fill:#2755aa;"/><path d="M363.221,666.365c49.848,-2.979 79.317,-26.459 109.54,-49.533c18.716,-14.288 4.579,-17.158 3.182,-17.17c-4.335,-0.037 -8.558,1.404 -12.86,1.937c-3.285,0.407 -17.776,0.987 -25.073,0.176c-35.616,-3.958 -41.949,-6.136 -61.056,-15.831c-2.028,-1.029 -23.008,-14.739 -37.44,-29.993c-48.897,-51.683 13.984,-48.563 22.896,-55.774c7.568,-6.123 1.301,-10.735 0.34,-10.992c-3.554,-0.949 -11.266,-0.227 -12.246,-0.2c-27.311,0.75 -41.549,-9.49 -44.539,-11.64c-52.751,-37.939 -48.383,-95.036 -46.568,-100.251c9.267,-26.616 83.892,13.873 91.134,5.162c4.352,-5.234 -1.394,-9.143 -2.042,-9.584c-7.988,-5.434 -26.142,-1.744 -59.199,-41.373c-31.291,-37.512 -33.463,-94.319 -14.727,-107.08c19.002,-12.942 106.038,38.755 119.283,46.405c8.397,4.85 58.577,33.829 99.98,68.53c81.358,68.188 94.03,118.713 101.105,149.095c1.079,4.635 1.046,5.626 5.771,5.758c4.86,0.136 5.288,-0.227 7.062,-4.666c11.443,-28.619 23.068,-52 25.27,-56.429c45.191,-90.895 112.821,-69.406 134.13,-53.993c6.004,4.342 12.106,10.659 17.365,20.181c6.244,11.305 11.907,13.336 31.154,24.144c4.784,2.687 8.151,3.808 8.138,9.191c-0.04,17.118 -48.52,-6.987 -64.176,75.438c-7.306,38.462 -1.539,39.579 -18.843,100.191c-11.213,39.275 -40.467,74.485 -43.32,77.643c-1.523,1.686 -33.739,33.039 -64.901,48.131c-75.647,36.637 -149.432,23.078 -150.714,22.945c-26.608,-2.753 -32.084,-10.056 -43.03,7.216c-16.634,26.248 -33.44,66.524 -76.12,57.404c-22.54,-4.816 -62.933,-33.731 -79.299,-47.313c-42.114,-34.95 -47.92,-80.825 -46.831,-91.922c4.073,-41.512 47.062,-11.05 126.633,-15.805Zm372.846,-262.872c-6.414,0 -11.621,5.207 -11.621,11.621c0,6.414 5.207,11.621 11.621,11.621c6.414,0 11.621,-5.207 11.621,-11.621c0,-6.414 -5.207,-11.621 -11.621,-11.621Z" style="fill:#fdfdfd;"/><path d="M787.101,249.606c-22.734,9.526 -21.776,12.177 -30.645,35.066c-0.189,0.489 -6.53,24.938 -26.673,18.338c-21.03,-6.891 -7.269,-37.402 -37.475,-50.092c-16.075,-6.754 -33.509,-10.82 -33.734,-25.059c-0.389,-24.653 43.317,-16.947 53.766,-43.283c1.881,-4.74 7.675,-39.388 30.21,-32.318c19.138,6.004 7.749,41.63 42.943,52.652c14.051,4.4 14.718,2.972 21.111,8.116c13.479,10.846 6.42,22.416 3.391,26.211c-3.496,4.382 -20.981,9.749 -22.893,10.369Z" style="fill:#e76b77;"/></g><g><path d="M3855.288,745.825c-0.19,76.585 2.533,86.313 -14.671,89.766c-3.468,0.696 -3.502,-0.061 -44.203,1.05c-28.656,0.782 -24.562,-15.66 -24.012,-65.8c0.959,-87.474 -1.342,-365.161 1.266,-374.22c3.602,-12.509 23.921,-11.229 54.008,-10.977c33.544,0.281 16.289,30.022 31.233,29.243c4.927,-0.257 14.043,-11.771 30.918,-19.704c10.057,-4.728 73.755,-34.671 138.818,5.114c66.461,40.64 71.908,109.911 73.612,133.058c5.341,72.537 -28.57,167.351 -131.096,178.622c-36.766,4.042 -62.282,-4.883 -67.397,-6.672c-19.78,-6.919 -29.936,-14.177 -32.276,-15.849c-7.202,-5.147 -8.589,-7.721 -14.914,-1.539c-3.051,2.983 -0.423,10.697 -0.767,20.372c-0.609,17.156 -0.519,17.042 -0.519,37.537Zm-0.114,-181.616c4.971,24.874 6.343,29.528 22.747,50.129c19.505,24.497 88.223,42.55 124.121,-12.658c29.823,-45.867 18.77,-138.773 -61.817,-144.327c-17.157,-1.183 -44.612,5.252 -60.916,21.361c-14.226,14.056 -19.855,32.569 -20.817,35.735c-7.203,23.692 -3.829,44.173 -3.318,49.761Z" style="fill:#2452a8;"/><path d="M1183.928,704.539c-4.312,-0.189 -19.92,2.416 -27.773,-6.439c-8.014,-9.037 -4.935,-10.895 -5.455,-264.766c-0.094,-45.657 -0.14,-142.596 0.216,-156.302c0.731,-28.155 13.496,-24.054 101.747,-24.577c90.46,-0.536 107.094,1.369 150.24,24.203c25.016,13.239 67.774,53.289 71.144,118.998c5.928,115.592 -77.267,165.849 -152.686,167.175c-34.735,0.611 -70.024,-1.065 -74.688,2.168c-4.726,3.276 -4.894,4.471 -5.071,80.833c-0.066,28.506 0.977,42.343 -2.38,49.544c-5.22,11.198 -22.307,9.011 -55.294,9.163Zm195.881,-328.358c-18.844,-40.46 -41.114,-42.481 -89.649,-42.891c-41.401,-0.349 -42.067,0.533 -45.644,4.9c-2.521,3.077 -2.549,7.369 -2.663,38.893c-0.355,97.99 -0.209,98.414 2.32,101.527c4.58,5.638 8.965,5.434 20.989,5.404c43.773,-0.11 103.083,7.985 118.295,-57.04c6.617,-28.287 -1.147,-43.167 -3.648,-50.794Z" style="fill:#2453a9;"/><path d="M3115.161,704.653c-44.897,-0.171 -58.303,4.216 -59.129,-27.419c-1.217,-46.62 -0.587,-405.8 -0.533,-406.159c3.426,-22.746 14.111,-17.902 103.416,-18.229c59.668,-0.218 126.766,-8.88 183.171,53.772c48.05,53.372 47.857,147.303 3.49,201.042c-69.462,84.135 -182.929,44.227 -196.219,59.425c-7.864,8.993 2.187,117.99 -7.009,130.214c-6.341,8.43 -14.177,7.123 -27.187,7.353Zm125.692,-225.375c9.443,-3.667 9.5,-3.286 18.078,-8.421c42.939,-25.705 47.06,-127.928 -31.393,-136.43c-14.7,-1.593 -67.968,-0.971 -68.607,-0.898c-1.02,0.116 -8.604,0.982 -10.955,6.694c-3.026,7.351 -1.838,7.688 -1.541,99.353c0.111,34.446 -3.362,43.72 18.726,43.791c52.989,0.171 53.17,1.378 75.693,-4.09Z" style="fill:#2553a8;"/><path d="M1990.145,704.666c-5.269,-0.374 -14.3,1.24 -21.594,-6.063c-6.173,-6.18 -5.634,-12.863 -6.087,-14.373c-0.873,-2.909 -6.978,-7.513 -9.562,-6.363c-4.095,1.823 -43.605,44.797 -119.218,31.802c-86.442,-14.856 -110.681,-94.927 -114.309,-106.912c-22.886,-75.601 9.146,-143.775 9.236,-143.945c49.737,-94.438 152.571,-92.932 197.817,-67.047c25.129,14.376 23.408,16.981 25.832,17.592c8.165,2.055 9.369,0.427 11.035,-7.849c4.382,-21.755 24.242,-19.65 45.629,-19.535c30.575,0.164 35.05,4.838 34.92,32.566c-1.159,247.371 -0.13,247.366 -0.831,268.864c-0.819,25.127 -14.134,21.208 -52.869,21.264Zm-86.868,-248.432c-2.505,-0.531 -21.686,-4.598 -31.809,-3.575c-76.499,7.729 -89.712,91.467 -62.621,143.204c14.406,27.512 47.219,41.735 75.237,39.24c77.433,-6.896 96.696,-104.229 57.028,-152.522c-15.746,-19.17 -21.957,-20.605 -37.835,-26.347Z" style="fill:#2452a8;"/><path d="M3718.813,490.371c29.936,123.99 -39.874,195.076 -97.149,212.48c-7.353,2.234 -70.609,23.917 -137.669,-7.2c-30.128,-13.98 -76.775,-55.455 -84.308,-118.251c-12.408,-103.444 31.836,-145.287 64.594,-170.279c46.421,-35.415 171.909,-56.648 237.528,45.487c10.207,15.886 15.081,32.378 17.004,37.763Zm-140.519,-34.735c-5.131,-0.744 -12.811,-3.968 -32.478,-0.276c-87.376,16.402 -82.814,167.611 0.234,180.38c96.489,14.836 116.136,-102.116 76.295,-153.103c-16.829,-21.536 -30.343,-23.26 -44.051,-27.002Z" style="fill:#2452a6;"/><path d="M2651.679,391.688c21.724,11.075 32.63,18.044 52.22,40.58c4.317,4.967 25.808,29.689 32.055,75.756c2.252,16.603 2.244,45.337 1.203,49.784c-4.724,20.2 -12.294,16.904 -103.252,17.007c-108.042,0.122 -121.968,-0.753 -125.125,2.096c-8.747,7.892 8.642,54.458 62.434,63.827c59.349,10.336 96.996,-25.494 112.577,-24.632c20.358,1.126 36.131,45.863 23.738,59.801c-23.148,26.033 -148.329,65.955 -229.361,0.52c-89.515,-72.284 -59.119,-189.502 -37.27,-223.882c21.31,-33.532 49.18,-51.35 61.544,-57.145c79.737,-37.373 147.483,-4.396 149.237,-3.712Zm-29.032,64.58c-4.959,-2.7 -33.165,-18.061 -70.383,-5.248c-32.89,11.324 -59.545,60.736 -36.896,62.031c8.201,0.469 103.302,-0.019 112.285,-0.065c19.965,-0.102 30.266,2.15 25.072,-17.176c-7.599,-28.274 -29.744,-39.304 -30.077,-39.542Z" style="fill:#2553a9;"/><path d="M2250.25,593.503c24.119,-74.573 26.462,-73.624 52.219,-147.746c18.574,-53.452 20.21,-54.488 24.41,-57.148c17.946,-11.366 66.543,-5.483 69.032,-4.118c15.93,8.737 7.632,23.205 -9.567,68.513c-4.363,11.495 -24.24,58.792 -39.01,99.424c-3.348,9.209 -79.648,206.438 -82.138,212.163c-2.051,4.717 -26.564,79.783 -118.777,81.942c-48.127,1.127 -40.615,-18.489 -40.142,-44.532c0.442,-24.327 3.16,-29.218 21.58,-28.006c45.902,3.022 58.076,-25.528 68.593,-53.153c8.48,-22.274 1.055,-26.894 -10.17,-57.121c-29.008,-78.11 -103.884,-251.302 -102.278,-267.885c1.466,-15.136 23.912,-13.38 56.16,-12.689c30.117,0.645 26.849,11.329 42.733,50.593c5.337,13.193 15.069,44.727 37.707,99.911c1.023,2.493 0.298,2.731 11.772,31.552c2.26,5.676 8.825,27.867 9.917,28.373c0.329,0.153 -0.104,-1.239 4.349,-1.28c2.023,-0.019 1.646,1.225 3.61,1.207Z" style="fill:#2553a7;"/><path d="M1540.157,704.489c-0.789,-0.031 -20.879,1.617 -25.474,-8.386c-3.77,-8.207 -2.162,-24.512 -2.291,-31.554c-0.165,-8.997 -0.501,-27.228 -0.517,-112.477c-0.029,-154.592 -0.97,-155.585 4.016,-161.906c2.775,-3.518 8.49,-10.765 55.539,-7.246c32.63,2.44 14.71,34.033 31.247,31.75c4.518,-0.624 6.865,-7.079 25.364,-18.212c23.411,-14.09 70.786,-27.778 76.342,-7.384c1.325,4.864 0.375,40.098 0.045,44.388c-2.147,27.942 -14.768,19.887 -45.031,26.943c-5.096,1.188 -35.927,8.376 -53.699,37.34c-9.741,15.875 -7.709,17.216 -8.886,179.335c-0.235,32.381 -13.447,27.452 -56.655,27.41Z" style="fill:#2452a7;"/><path d="M2981.783,402.016c-0.702,40.749 1.645,51.035 -23.069,54.269c-11.036,1.444 -58.676,5.149 -79.739,52.607c-6.871,15.482 -3.396,16.327 -4.019,168.183c-0.138,33.56 -13.757,27.69 -47.321,27.344c-2.016,-0.021 -20.29,-0.209 -25.128,-1.946c-14.02,-5.032 -9.856,-15.972 -10.94,-100.419c-0.431,-33.573 0.395,-45.289 -0.041,-193.746c-0.068,-22.995 6.533,-27.233 54.899,-25.556c32.403,1.124 18.875,31.931 30.973,32.861c6.421,0.494 7.55,-4.186 23.85,-15.616c24.82,-17.404 73.395,-30.584 79.371,-11.509c0.325,1.037 0.086,1 1.163,13.529Z" style="fill:#2452a8;"/></g></svg>