<?xml version="1.0" encoding="UTF-8" standalone="no"?><!DOCTYPE svg PUBLIC "-//W3C//DTD SVG 1.1//EN" "http://www.w3.org/Graphics/SVG/1.1/DTD/svg11.dtd"><svg width="100%" height="100%" viewBox="0 0 952 976" version="1.1" xmlns="http://www.w3.org/2000/svg" xmlns:xlink="http://www.w3.org/1999/xlink" xml:space="preserve" xmlns:serif="http://www.serif.com/" style="fill-rule:evenodd;clip-rule:evenodd;stroke-linejoin:round;stroke-miterlimit:2;"><rect id="Icon" x="0" y="-0" width="951.737" height="975.995" style="fill:none;"/><g><path d="M368.318,889.031c-14.922,-14.904 -35.149,-23.275 -56.239,-23.275c-20.969,0 -44.21,0 -44.21,0c-144.406,0 -261.645,-117.239 -261.645,-261.645l0,-337.171c0,-144.406 117.239,-261.645 261.645,-261.645l410.219,0c144.406,0 261.645,117.239 261.645,261.645l0,337.171c0,144.406 -117.239,261.645 -261.645,261.645l-44.21,-0c-21.09,0 -41.317,8.371 -56.239,23.275c-25.368,25.337 -62.367,62.29 -62.367,62.29c-23.366,23.338 -61.22,23.338 -84.587,0c0,-0 -36.998,-36.953 -62.367,-62.29Z" style="fill:#2755aa;"/><path d="M322.352,612.305c49.848,-2.979 79.317,-26.459 109.54,-49.533c18.716,-14.288 4.579,-17.158 3.182,-17.17c-4.335,-0.037 -8.558,1.404 -12.86,1.937c-3.285,0.407 -17.776,0.987 -25.073,0.176c-35.616,-3.958 -41.949,-6.136 -61.056,-15.831c-2.028,-1.029 -23.008,-14.739 -37.44,-29.993c-48.897,-51.683 13.984,-48.563 22.896,-55.774c7.568,-6.123 1.301,-10.735 0.34,-10.992c-3.554,-0.949 -11.266,-0.227 -12.246,-0.2c-27.311,0.75 -41.549,-9.49 -44.539,-11.64c-52.751,-37.939 -48.383,-95.036 -46.568,-100.251c9.267,-26.616 83.892,13.873 91.134,5.162c4.352,-5.234 -1.394,-9.143 -2.042,-9.584c-7.988,-5.434 -26.142,-1.744 -59.199,-41.373c-31.291,-37.512 -33.463,-94.319 -14.727,-107.08c19.002,-12.942 106.038,38.755 119.283,46.405c8.397,4.85 58.577,33.829 99.98,68.53c81.358,68.188 94.03,118.713 101.105,149.095c1.079,4.635 1.046,5.626 5.771,5.758c4.86,0.136 5.288,-0.227 7.062,-4.666c11.443,-28.619 23.068,-52 25.27,-56.429c45.191,-90.895 112.821,-69.406 134.13,-53.993c6.004,4.342 12.106,10.659 17.365,20.181c6.244,11.305 11.907,13.336 31.154,24.144c4.784,2.687 8.151,3.808 8.138,9.191c-0.04,17.118 -48.52,-6.987 -64.176,75.438c-7.306,38.462 -1.539,39.579 -18.843,100.191c-11.213,39.275 -40.467,74.485 -43.32,77.643c-1.523,1.686 -33.739,33.039 -64.901,48.131c-75.647,36.637 -149.432,23.078 -150.714,22.945c-26.608,-2.753 -32.084,-10.056 -43.03,7.216c-16.634,26.248 -33.44,66.524 -76.12,57.404c-22.54,-4.816 -62.933,-33.731 -79.299,-47.313c-42.114,-34.95 -47.92,-80.825 -46.831,-91.922c4.073,-41.512 47.062,-11.05 126.633,-15.805Zm372.846,-262.872c-6.414,0 -11.621,5.207 -11.621,11.621c0,6.414 5.207,11.621 11.621,11.621c6.414,0 11.621,-5.207 11.621,-11.621c0,-6.414 -5.207,-11.621 -11.621,-11.621Z" style="fill:#fdfdfd;"/><path d="M746.232,195.546c-22.734,9.526 -21.776,12.177 -30.645,35.066c-0.189,0.489 -6.53,24.938 -26.673,18.338c-21.03,-6.891 -7.269,-37.402 -37.475,-50.092c-16.075,-6.754 -33.509,-10.82 -33.734,-25.059c-0.389,-24.653 43.317,-16.947 53.766,-43.283c1.881,-4.74 7.675,-39.388 30.21,-32.318c19.138,6.004 7.749,41.63 42.943,52.652c14.051,4.4 14.718,2.972 21.111,8.116c13.479,10.846 6.42,22.416 3.391,26.211c-3.496,4.382 -20.981,9.749 -22.893,10.369Z" style="fill:#e76b77;"/></g></svg>