<?xml version="1.0" encoding="UTF-8" standalone="no"?>
<!DOCTYPE svg PUBLIC "-//W3C//DTD SVG 1.1//EN" "http://www.w3.org/Graphics/SVG/1.1/DTD/svg11.dtd">
<svg width="100%" height="100%" viewBox="0 0 144 166" version="1.1" xmlns="http://www.w3.org/2000/svg" xmlns:xlink="http://www.w3.org/1999/xlink" xml:space="preserve" xmlns:serif="http://www.serif.com/" style="fill-rule:evenodd;clip-rule:evenodd;stroke-linejoin:round;stroke-miterlimit:2;">
    <g transform="matrix(1,0,0,1,-587.440232,-1041.718354)">
        <g id="WP-icon2" transform="matrix(0.628149,0,0,0.707212,242.762692,323.479433)">
            <rect x="548.719" y="1015.592" width="228.417" height="234.239" style="fill:none;"/>
            <g transform="matrix(2.387969,0,0,2.121005,57.943424,421.478654)">
                <path d="M226.523,363.951C234.499,363.474 239.214,359.717 244.05,356.025C247.044,353.739 244.782,353.28 244.559,353.278C243.865,353.272 243.189,353.503 242.501,353.588C241.976,353.653 239.657,353.746 238.489,353.616C232.791,352.983 231.777,352.634 228.72,351.083C228.396,350.918 225.039,348.725 222.73,346.284C214.906,338.015 224.967,338.514 226.393,337.36C227.604,336.381 226.601,335.643 226.448,335.602C225.879,335.45 224.645,335.566 224.488,335.57C220.118,335.69 217.84,334.051 217.362,333.707C208.922,327.637 209.621,318.502 209.911,317.667C211.394,313.409 223.334,319.887 224.493,318.493C225.189,317.656 224.27,317.03 224.166,316.96C222.888,316.09 219.983,316.681 214.694,310.34C209.688,304.338 209.34,295.249 212.338,293.207C215.378,291.137 229.304,299.408 231.423,300.632C232.767,301.408 240.795,306.045 247.42,311.597C260.437,322.507 262.465,330.591 263.597,335.452C263.769,336.194 263.764,336.352 264.52,336.373C265.298,336.395 265.366,336.337 265.65,335.627C267.481,331.048 269.341,327.307 269.693,326.598C276.924,312.055 287.745,315.493 291.154,317.959C292.115,318.654 293.091,319.665 293.932,321.188C294.932,322.997 295.838,323.322 298.917,325.051C299.683,325.481 300.221,325.661 300.219,326.522C300.213,329.261 292.456,325.404 289.951,338.592C288.782,344.746 289.705,344.925 286.936,354.623C285.142,360.907 280.461,366.54 280.005,367.046C279.761,367.315 274.607,372.332 269.621,374.746C257.517,380.608 245.712,378.439 245.507,378.418C241.249,377.977 240.373,376.809 238.622,379.572C235.961,383.772 233.272,390.216 226.443,388.757C222.836,387.986 216.373,383.36 213.755,381.187C207.016,375.595 206.088,368.255 206.262,366.479C206.913,359.838 213.792,364.711 226.523,363.951ZM286.178,321.891C285.152,321.891 284.319,322.724 284.319,323.75C284.319,324.777 285.152,325.61 286.178,325.61C287.205,325.61 288.038,324.777 288.038,323.75C288.038,322.724 287.205,321.891 286.178,321.891Z" style="fill:rgb(253,253,253);"/>
            </g>
            <g transform="matrix(2.387969,0,0,2.121005,66.745827,428.431111)">
                <path d="M290.658,293.991C287.02,295.515 287.173,295.94 285.754,299.602C285.724,299.68 284.71,303.592 281.487,302.536C278.122,301.433 280.324,296.552 275.491,294.521C272.919,293.44 270.129,292.79 270.093,290.512C270.031,286.567 277.024,287.8 278.696,283.586C278.997,282.828 279.924,277.284 283.529,278.415C286.591,279.376 284.769,285.076 290.4,286.84C292.648,287.544 292.755,287.315 293.778,288.138C295.934,289.874 294.805,291.725 294.321,292.332C293.761,293.033 290.964,293.892 290.658,293.991Z" style="fill:rgb(253,253,253);"/>
            </g>
        </g>
    </g>
</svg>
